# xmcd CD database file
#
# Track frame offsets:
#	150
#	8402
#	23344
#	34170
#	39828
#	53753
#	57807
#	66290
#	74688
#	85039
#	92732
#	104378
#	110133
#	122303
#	132157
#	137341
#	143934
#	154015
#	163260
#	169177
#	178557
#	188351
#	193693
#	205528
#	214493
#	224467
#	234293
#	238859
#	249748
#	257028
#	265272
#	270978
#	275444
#	288350
#	298947
#	304025
#	312203
#
# Disc length: 4296 seconds
#
# Revision: 0
# Processed by: cddbd v1.5.2PL0 Copyright (c) Steve Scherf et al.
# Submitted via: CDex 1.51
#
DISCID=1310c625
DTITLE=The Carter Sisters and Mother Maybelle with Chet Atkins - 1949
DYEAR=1949
DGENRE=Country
TTITLE0=Blue Ridge Mountain Blues
TTITLE1=Money Marbles And Chalk
TTITLE2=Why Do You Weep Dear Willow
TTITLE3=Guitar Solo
TTITLE4=Wedding Bells
TTITLE5=In The Pines
TTITLE6=Skip To My Lou
TTITLE7=Tennessee Tears
TTITLE8=The Gold Watch And Chain
TTITLE9=Sourwood Mountain
TTITLE10=My confession
TTITLE11=Song Of The Islands
TTITLE12=I'm A Plain Old Country Girl
TTITLE13=Wednesday Night Waltz
TTITLE14=You Belong To My Heart
TTITLE15=Down On The Farm
TTITLE16=If One Won't, Another Will
TTITLE17=Just A Closer Walk With Thee
TTITLE18=Guitar Solo
TTITLE19=Beautiful Morning Glory
TTITLE20=One The Rock Where Moses Stood
TTITLE21=Daisy
TTITLE22=Guitar Waltz
TTITLE23=Cornbread And 'Lasses
TTITLE24=The Tear-Stained Letter
TTITLE25=Goin' Home This Evening
TTITLE26=South
TTITLE27=Upon The Blue Ridge Mountains
TTITLE28=Ragtime Annie - In The Pines
TTITLE29=Keep Movin' On
TTITLE30=Guitar Solo
TTITLE31=Fiddle Solo - In The Pines
TTITLE32=All The World Is Lonely Now
TTITLE33=Where Shall I Be
TTITLE34=Seeing Nellie Home
TTITLE35=The Wave On The Sea
TTITLE36=Fiddle Solo - In The Pines
EXTD=YEAR: 1949
EXTT0=
EXTT1=
EXTT2=
EXTT3=
EXTT4=
EXTT5=
EXTT6=
EXTT7=
EXTT8=
EXTT9=
EXTT10=
EXTT11=
EXTT12=
EXTT13=
EXTT14=
EXTT15=
EXTT16=
EXTT17=
EXTT18=
EXTT19=
EXTT20=
EXTT21=
EXTT22=
EXTT23=
EXTT24=
EXTT25=
EXTT26=
EXTT27=
EXTT28=
EXTT29=
EXTT30=
EXTT31=
EXTT32=
EXTT33=
EXTT34=
EXTT35=
EXTT36=
PLAYORDER=
